<svg xmlns="http://www.w3.org/2000/svg" viewBox="0 0 180 180" fill="none">
  <rect width="180" height="180" rx="40" fill="#e3f0ff"/>
  <circle cx="90" cy="90" r="72" fill="#dde8ff"/>
  <path
    fill="#4a90d9"
    d="M90 142l-9-8.15C55.5 118.5 42 106.5 42 84.5 42 66 57 51 75.5 51c10.5 0 21 4.5 27 12 6-7.5 16.5-12 27-12 18.5 0 33.5 15 33.5 33.5 0 22-13.5 34-39 49.35L90 142z"
  />
  <path
    fill="#7eb8e8"
    opacity="0.5"
    d="M67 58c-11 4.5-19.5 14.5-21 27-1.5 14 5.5 28 23.5 44 7 6.5 14 12 21 16.5 2-13.5-1-27-8.5-39-7-11-16.5-19-28.5-23-2.5-1-5-1.5-7.5-2z"
  />
</svg>
