<svg xmlns="http://www.w3.org/2000/svg" viewBox="0 0 32 32" fill="none">
  <rect width="32" height="32" rx="8" fill="#eef6ff"/>
  <path
    fill="#4a90d9"
    d="M16 26.5l-1.6-1.45C8.6 20.2 5 17.1 5 13.2 5 9.9 7.9 7 11.2 7c1.9 0 3.8.9 4.8 2.3 1-1.4 2.9-2.3 4.8-2.3 3.3 0 6.2 2.9 6.2 6.2 0 3.9-3.6 7-9.4 11.85L16 26.5z"
  />
  <path
    fill="#7eb8e8"
    opacity="0.45"
    d="M12 9.5c-2 .8-3.5 2.6-3.8 4.8-.3 2.5 1.2 5 4.2 7.8 1.2 1.1 2.4 2 3.6 2.8.3-2.4-.2-4.8-1.5-6.9-1.2-2-3-3.4-5.1-4.1-.5-.2-1-.3-1.4-.4z"
  />
</svg>
